<mxfile host="app.diagrams.net" modified="2023-07-01T02:06:44.825Z" agent="Mozilla/5.0 (Windows NT 10.0; Win64; x64; rv:109.0) Gecko/20100101 Firefox/112.0" etag="ut9v3yrvzC3C8QDoAsNJ" version="21.5.2" type="github">
  <diagram id="7m72LDxQtxL-9XKPCtJv" name="Página-1">
    <mxGraphModel dx="1493" dy="1846" grid="1" gridSize="10" guides="1" tooltips="1" connect="1" arrows="1" fold="1" page="1" pageScale="1" pageWidth="850" pageHeight="1100" math="0" shadow="0">
      <root>
        <mxCell id="0" />
        <mxCell id="1" parent="0" />
        <mxCell id="SLZqTuVwZuzJUBH67Rhd-2" value="Seleccionar opción" style="ellipse;whiteSpace=wrap;html=1;" parent="1" vertex="1">
          <mxGeometry x="303.99999999999994" y="170" width="121.25" height="60" as="geometry" />
        </mxCell>
        <mxCell id="SLZqTuVwZuzJUBH67Rhd-8" value="Llenar formulario" style="ellipse;whiteSpace=wrap;html=1;" parent="1" vertex="1">
          <mxGeometry x="1284.71" y="290" width="97.5" height="55" as="geometry" />
        </mxCell>
        <mxCell id="SLZqTuVwZuzJUBH67Rhd-10" value="&lt;div&gt;Enviar formulario&lt;br&gt;&lt;/div&gt;" style="ellipse;whiteSpace=wrap;html=1;" parent="1" vertex="1">
          <mxGeometry x="1452.51" y="300" width="97.49" height="60" as="geometry" />
        </mxCell>
        <mxCell id="SLZqTuVwZuzJUBH67Rhd-12" value="Verificar disponibilidad del psicólogo" style="ellipse;whiteSpace=wrap;html=1;" parent="1" vertex="1">
          <mxGeometry x="1583.46" y="200" width="95.62" height="80" as="geometry" />
        </mxCell>
        <mxCell id="SLZqTuVwZuzJUBH67Rhd-14" value="Registrar cita" style="ellipse;whiteSpace=wrap;html=1;" parent="1" vertex="1">
          <mxGeometry x="1660" y="282.5" width="105.62" height="70" as="geometry" />
        </mxCell>
        <mxCell id="SLZqTuVwZuzJUBH67Rhd-16" value="Notificar cita programada al estudiante" style="ellipse;whiteSpace=wrap;html=1;" parent="1" vertex="1">
          <mxGeometry x="1740" y="390" width="95.62" height="70" as="geometry" />
        </mxCell>
        <mxCell id="SLZqTuVwZuzJUBH67Rhd-19" value="Enviar recordatorio de la cita(días antes)" style="ellipse;whiteSpace=wrap;html=1;" parent="1" vertex="1">
          <mxGeometry x="1268.6200000000001" y="393" width="129.68" height="80" as="geometry" />
        </mxCell>
        <mxCell id="SLZqTuVwZuzJUBH67Rhd-25" value="Evaluar la sesión a través del sitio web " style="ellipse;whiteSpace=wrap;html=1;" parent="1" vertex="1">
          <mxGeometry x="1164.55" y="-10" width="126.57" height="80" as="geometry" />
        </mxCell>
        <mxCell id="SLZqTuVwZuzJUBH67Rhd-36" value="" style="endArrow=classic;html=1;rounded=0;entryX=0.003;entryY=0.676;entryDx=0;entryDy=0;entryPerimeter=0;" parent="1" source="rhVo1ASn1AgVRIdYZEBx-45" target="SLZqTuVwZuzJUBH67Rhd-2" edge="1">
          <mxGeometry width="50" height="50" relative="1" as="geometry">
            <mxPoint x="84" y="340" as="sourcePoint" />
            <mxPoint x="854" y="450" as="targetPoint" />
          </mxGeometry>
        </mxCell>
        <mxCell id="SLZqTuVwZuzJUBH67Rhd-51" value="Verificar historial citas " style="ellipse;whiteSpace=wrap;html=1;" parent="1" vertex="1">
          <mxGeometry x="820" y="510" width="81.54" height="70" as="geometry" />
        </mxCell>
        <mxCell id="SLZqTuVwZuzJUBH67Rhd-55" value="Cancelar cita" style="ellipse;whiteSpace=wrap;html=1;" parent="1" vertex="1">
          <mxGeometry x="1090" y="620" width="95.65" height="60" as="geometry" />
        </mxCell>
        <mxCell id="SLZqTuVwZuzJUBH67Rhd-62" value="Notificar a las partes de la cita" style="ellipse;whiteSpace=wrap;html=1;" parent="1" vertex="1">
          <mxGeometry x="1298.29" y="600" width="105.29" height="70" as="geometry" />
        </mxCell>
        <mxCell id="rhVo1ASn1AgVRIdYZEBx-3" value="Recuperar contraseña" style="ellipse;whiteSpace=wrap;html=1;" parent="1" vertex="1">
          <mxGeometry x="84" y="-30" width="80" height="50" as="geometry" />
        </mxCell>
        <mxCell id="rhVo1ASn1AgVRIdYZEBx-4" value="Inicio sesión" style="ellipse;whiteSpace=wrap;html=1;" parent="1" vertex="1">
          <mxGeometry x="164" y="70" width="80" height="60" as="geometry" />
        </mxCell>
        <mxCell id="rhVo1ASn1AgVRIdYZEBx-5" value="Registrarse" style="ellipse;whiteSpace=wrap;html=1;" parent="1" vertex="1">
          <mxGeometry x="279.99999999999994" y="345" width="80" height="60" as="geometry" />
        </mxCell>
        <mxCell id="rhVo1ASn1AgVRIdYZEBx-6" value="Presentar inicio" style="ellipse;whiteSpace=wrap;html=1;" parent="1" vertex="1">
          <mxGeometry x="640" y="100" width="100.91" height="70" as="geometry" />
        </mxCell>
        <mxCell id="rhVo1ASn1AgVRIdYZEBx-7" value="" style="endArrow=none;dashed=1;html=1;dashPattern=1 3;strokeWidth=2;rounded=0;exitX=0.334;exitY=-0.026;exitDx=0;exitDy=0;exitPerimeter=0;" parent="1" source="rhVo1ASn1AgVRIdYZEBx-4" target="rhVo1ASn1AgVRIdYZEBx-3" edge="1">
          <mxGeometry width="50" height="50" relative="1" as="geometry">
            <mxPoint x="254" y="170" as="sourcePoint" />
            <mxPoint x="303.99999999999994" y="120" as="targetPoint" />
          </mxGeometry>
        </mxCell>
        <mxCell id="rhVo1ASn1AgVRIdYZEBx-8" value="&amp;lt;&amp;lt;Extender&amp;gt;&amp;gt;" style="edgeLabel;html=1;align=center;verticalAlign=middle;resizable=0;points=[];" parent="rhVo1ASn1AgVRIdYZEBx-7" vertex="1" connectable="0">
          <mxGeometry x="0.204" y="-2" relative="1" as="geometry">
            <mxPoint x="-1" as="offset" />
          </mxGeometry>
        </mxCell>
        <mxCell id="rhVo1ASn1AgVRIdYZEBx-12" value="&amp;lt;&amp;lt;Extender&amp;gt;&amp;gt;" style="endArrow=none;dashed=1;html=1;dashPattern=1 3;strokeWidth=2;rounded=0;entryX=0.646;entryY=0.974;entryDx=0;entryDy=0;entryPerimeter=0;" parent="1" source="SLZqTuVwZuzJUBH67Rhd-2" target="rhVo1ASn1AgVRIdYZEBx-4" edge="1">
          <mxGeometry width="50" height="50" relative="1" as="geometry">
            <mxPoint x="534" y="250" as="sourcePoint" />
            <mxPoint x="584" y="200" as="targetPoint" />
          </mxGeometry>
        </mxCell>
        <mxCell id="rhVo1ASn1AgVRIdYZEBx-13" value="&amp;lt;&amp;lt;Extender&amp;gt;&amp;gt;" style="endArrow=none;dashed=1;html=1;dashPattern=1 3;strokeWidth=2;rounded=0;entryX=0.5;entryY=0;entryDx=0;entryDy=0;exitX=0.379;exitY=1;exitDx=0;exitDy=0;exitPerimeter=0;" parent="1" source="SLZqTuVwZuzJUBH67Rhd-2" target="rhVo1ASn1AgVRIdYZEBx-5" edge="1">
          <mxGeometry width="50" height="50" relative="1" as="geometry">
            <mxPoint x="534" y="250" as="sourcePoint" />
            <mxPoint x="584" y="200" as="targetPoint" />
          </mxGeometry>
        </mxCell>
        <mxCell id="rhVo1ASn1AgVRIdYZEBx-15" value="&amp;lt;&amp;lt;Incluir&amp;gt;&amp;gt;" style="endArrow=none;dashed=1;html=1;dashPattern=1 3;strokeWidth=2;rounded=0;" parent="1" source="SLZqTuVwZuzJUBH67Rhd-2" target="rhVo1ASn1AgVRIdYZEBx-6" edge="1">
          <mxGeometry width="50" height="50" relative="1" as="geometry">
            <mxPoint x="702.81" y="750" as="sourcePoint" />
            <mxPoint x="752.81" y="700" as="targetPoint" />
          </mxGeometry>
        </mxCell>
        <mxCell id="rhVo1ASn1AgVRIdYZEBx-20" value="Psicología" style="ellipse;whiteSpace=wrap;html=1;" parent="1" vertex="1">
          <mxGeometry x="1090" y="-360" width="90" height="60" as="geometry" />
        </mxCell>
        <mxCell id="rhVo1ASn1AgVRIdYZEBx-21" value="Orientación Estudiantil" style="ellipse;whiteSpace=wrap;html=1;" parent="1" vertex="1">
          <mxGeometry x="1198.46" y="-320" width="80" height="80" as="geometry" />
        </mxCell>
        <mxCell id="rhVo1ASn1AgVRIdYZEBx-22" value="Psicopedagogía" style="ellipse;whiteSpace=wrap;html=1;" parent="1" vertex="1">
          <mxGeometry x="1278.46" y="-250" width="110" height="70" as="geometry" />
        </mxCell>
        <mxCell id="rhVo1ASn1AgVRIdYZEBx-24" value="Seleccionar servicios" style="ellipse;whiteSpace=wrap;html=1;" parent="1" vertex="1">
          <mxGeometry x="953.46" y="-210" width="90" height="70" as="geometry" />
        </mxCell>
        <mxCell id="rhVo1ASn1AgVRIdYZEBx-25" value="&amp;lt;&amp;lt;Extender&amp;gt;&amp;gt;" style="endArrow=none;dashed=1;html=1;dashPattern=1 3;strokeWidth=2;rounded=0;" parent="1" source="rhVo1ASn1AgVRIdYZEBx-6" target="rhVo1ASn1AgVRIdYZEBx-24" edge="1">
          <mxGeometry width="50" height="50" relative="1" as="geometry">
            <mxPoint x="850" y="400" as="sourcePoint" />
            <mxPoint x="900" y="350" as="targetPoint" />
          </mxGeometry>
        </mxCell>
        <mxCell id="rhVo1ASn1AgVRIdYZEBx-26" value="&amp;lt;&amp;lt;Extender&amp;gt;&amp;gt;" style="endArrow=none;dashed=1;html=1;dashPattern=1 3;strokeWidth=2;rounded=0;entryX=0.074;entryY=0.741;entryDx=0;entryDy=0;entryPerimeter=0;" parent="1" source="rhVo1ASn1AgVRIdYZEBx-24" target="rhVo1ASn1AgVRIdYZEBx-20" edge="1">
          <mxGeometry width="50" height="50" relative="1" as="geometry">
            <mxPoint x="1023.46" y="70" as="sourcePoint" />
            <mxPoint x="1073.46" y="20" as="targetPoint" />
          </mxGeometry>
        </mxCell>
        <mxCell id="rhVo1ASn1AgVRIdYZEBx-27" value="&amp;lt;&amp;lt;Extender&amp;gt;&amp;gt;" style="endArrow=none;dashed=1;html=1;dashPattern=1 3;strokeWidth=2;rounded=0;" parent="1" source="rhVo1ASn1AgVRIdYZEBx-24" target="rhVo1ASn1AgVRIdYZEBx-21" edge="1">
          <mxGeometry width="50" height="50" relative="1" as="geometry">
            <mxPoint x="1023.46" y="70" as="sourcePoint" />
            <mxPoint x="1073.46" y="20" as="targetPoint" />
          </mxGeometry>
        </mxCell>
        <mxCell id="rhVo1ASn1AgVRIdYZEBx-28" value="&amp;lt;&amp;lt;Extender&amp;gt;&amp;gt;" style="endArrow=none;dashed=1;html=1;dashPattern=1 3;strokeWidth=2;rounded=0;" parent="1" source="rhVo1ASn1AgVRIdYZEBx-24" target="rhVo1ASn1AgVRIdYZEBx-22" edge="1">
          <mxGeometry width="50" height="50" relative="1" as="geometry">
            <mxPoint x="1023.46" y="70" as="sourcePoint" />
            <mxPoint x="1073.46" y="20" as="targetPoint" />
          </mxGeometry>
        </mxCell>
        <mxCell id="rhVo1ASn1AgVRIdYZEBx-29" value="Realizar búsqueda" style="ellipse;whiteSpace=wrap;html=1;" parent="1" vertex="1">
          <mxGeometry x="1030" y="-90" width="100" height="80" as="geometry" />
        </mxCell>
        <mxCell id="rhVo1ASn1AgVRIdYZEBx-30" value="&amp;lt;&amp;lt;Extender&amp;gt;&amp;gt;" style="endArrow=none;dashed=1;html=1;dashPattern=1 3;strokeWidth=2;rounded=0;" parent="1" source="rhVo1ASn1AgVRIdYZEBx-6" target="rhVo1ASn1AgVRIdYZEBx-29" edge="1">
          <mxGeometry width="50" height="50" relative="1" as="geometry">
            <mxPoint x="850" y="400" as="sourcePoint" />
            <mxPoint x="900" y="350" as="targetPoint" />
          </mxGeometry>
        </mxCell>
        <mxCell id="rhVo1ASn1AgVRIdYZEBx-32" value="&amp;lt;&amp;lt;Extender&amp;gt;&amp;gt;" style="endArrow=none;dashed=1;html=1;dashPattern=1 3;strokeWidth=2;rounded=0;" parent="1" source="rhVo1ASn1AgVRIdYZEBx-6" target="SLZqTuVwZuzJUBH67Rhd-25" edge="1">
          <mxGeometry width="50" height="50" relative="1" as="geometry">
            <mxPoint x="900" y="340" as="sourcePoint" />
            <mxPoint x="1199.6296387832458" y="42.92797231310806" as="targetPoint" />
          </mxGeometry>
        </mxCell>
        <mxCell id="rhVo1ASn1AgVRIdYZEBx-33" value="Visualizar publicaciones" style="ellipse;whiteSpace=wrap;html=1;" parent="1" vertex="1">
          <mxGeometry x="1188.29" y="110" width="110" height="80" as="geometry" />
        </mxCell>
        <mxCell id="rhVo1ASn1AgVRIdYZEBx-34" value="&amp;lt;&amp;lt;Extender&amp;gt;&amp;gt;" style="endArrow=none;dashed=1;html=1;dashPattern=1 3;strokeWidth=2;rounded=0;exitX=0.954;exitY=0.733;exitDx=0;exitDy=0;exitPerimeter=0;" parent="1" source="rhVo1ASn1AgVRIdYZEBx-6" target="rhVo1ASn1AgVRIdYZEBx-33" edge="1">
          <mxGeometry width="50" height="50" relative="1" as="geometry">
            <mxPoint x="1000" y="330" as="sourcePoint" />
            <mxPoint x="1050" y="280" as="targetPoint" />
          </mxGeometry>
        </mxCell>
        <mxCell id="rhVo1ASn1AgVRIdYZEBx-35" value="Guardar publicación" style="ellipse;whiteSpace=wrap;html=1;" parent="1" vertex="1">
          <mxGeometry x="1372.51" y="-53" width="80" height="80" as="geometry" />
        </mxCell>
        <mxCell id="rhVo1ASn1AgVRIdYZEBx-37" value="compartir publicación" style="ellipse;whiteSpace=wrap;html=1;" parent="1" vertex="1">
          <mxGeometry x="1490" y="-20" width="80" height="80" as="geometry" />
        </mxCell>
        <mxCell id="rhVo1ASn1AgVRIdYZEBx-39" value="&amp;lt;&amp;lt;Extender&amp;gt;&amp;gt;" style="endArrow=none;dashed=1;html=1;dashPattern=1 3;strokeWidth=2;rounded=0;entryX=0.039;entryY=0.632;entryDx=0;entryDy=0;entryPerimeter=0;" parent="1" source="rhVo1ASn1AgVRIdYZEBx-33" target="rhVo1ASn1AgVRIdYZEBx-35" edge="1">
          <mxGeometry width="50" height="50" relative="1" as="geometry">
            <mxPoint x="1273.46" y="310" as="sourcePoint" />
            <mxPoint x="1323.46" y="260" as="targetPoint" />
          </mxGeometry>
        </mxCell>
        <mxCell id="rhVo1ASn1AgVRIdYZEBx-40" value="&amp;lt;&amp;lt;Extender&amp;gt;&amp;gt;" style="endArrow=none;dashed=1;html=1;dashPattern=1 3;strokeWidth=2;rounded=0;entryX=0.021;entryY=0.346;entryDx=0;entryDy=0;entryPerimeter=0;" parent="1" source="rhVo1ASn1AgVRIdYZEBx-33" target="rhVo1ASn1AgVRIdYZEBx-37" edge="1">
          <mxGeometry width="50" height="50" relative="1" as="geometry">
            <mxPoint x="1273.46" y="310" as="sourcePoint" />
            <mxPoint x="1323.46" y="260" as="targetPoint" />
          </mxGeometry>
        </mxCell>
        <mxCell id="rhVo1ASn1AgVRIdYZEBx-41" value="Solicitar cita" style="ellipse;whiteSpace=wrap;html=1;" parent="1" vertex="1">
          <mxGeometry x="1160" y="220" width="80" height="80" as="geometry" />
        </mxCell>
        <mxCell id="rhVo1ASn1AgVRIdYZEBx-42" value="&amp;lt;&amp;lt;Extender&amp;gt;&amp;gt;" style="endArrow=none;dashed=1;html=1;dashPattern=1 3;strokeWidth=2;rounded=0;entryX=0;entryY=0;entryDx=0;entryDy=0;" parent="1" source="rhVo1ASn1AgVRIdYZEBx-6" target="rhVo1ASn1AgVRIdYZEBx-41" edge="1">
          <mxGeometry width="50" height="50" relative="1" as="geometry">
            <mxPoint x="1010" y="470" as="sourcePoint" />
            <mxPoint x="1060" y="420" as="targetPoint" />
          </mxGeometry>
        </mxCell>
        <mxCell id="rhVo1ASn1AgVRIdYZEBx-43" value="&amp;lt;&amp;lt;Incluir&amp;gt;&amp;gt;" style="endArrow=none;dashed=1;html=1;dashPattern=1 3;strokeWidth=2;rounded=0;" parent="1" source="rhVo1ASn1AgVRIdYZEBx-41" target="SLZqTuVwZuzJUBH67Rhd-8" edge="1">
          <mxGeometry width="50" height="50" relative="1" as="geometry">
            <mxPoint x="1183.46" y="320" as="sourcePoint" />
            <mxPoint x="1233.46" y="270" as="targetPoint" />
          </mxGeometry>
        </mxCell>
        <mxCell id="rhVo1ASn1AgVRIdYZEBx-45" value="Estudiante" style="outlineConnect=0;dashed=0;verticalLabelPosition=bottom;verticalAlign=top;align=center;html=1;shape=mxgraph.aws3.user;fillColor=#D2D3D3;gradientColor=none;" parent="1" vertex="1">
          <mxGeometry x="181.5" y="250" width="45" height="63" as="geometry" />
        </mxCell>
        <mxCell id="rhVo1ASn1AgVRIdYZEBx-47" value="Descargar PDF" style="ellipse;whiteSpace=wrap;html=1;" parent="1" vertex="1">
          <mxGeometry x="1363.46" y="-510" width="80" height="80" as="geometry" />
        </mxCell>
        <mxCell id="rhVo1ASn1AgVRIdYZEBx-48" value="Generar PDF" style="ellipse;whiteSpace=wrap;html=1;" parent="1" vertex="1">
          <mxGeometry x="1503.46" y="-630" width="80" height="80" as="geometry" />
        </mxCell>
        <mxCell id="rhVo1ASn1AgVRIdYZEBx-51" value="" style="endArrow=block;dashed=1;endFill=0;endSize=12;html=1;rounded=0;" parent="1" source="rhVo1ASn1AgVRIdYZEBx-48" target="rhVo1ASn1AgVRIdYZEBx-47" edge="1">
          <mxGeometry width="160" relative="1" as="geometry">
            <mxPoint x="1133.84" y="-490" as="sourcePoint" />
            <mxPoint x="1338.72" y="-500" as="targetPoint" />
          </mxGeometry>
        </mxCell>
        <mxCell id="rhVo1ASn1AgVRIdYZEBx-52" value="&amp;lt;&amp;lt;Incluir&amp;gt;&amp;gt;" style="edgeLabel;html=1;align=center;verticalAlign=middle;resizable=0;points=[];" parent="rhVo1ASn1AgVRIdYZEBx-51" vertex="1" connectable="0">
          <mxGeometry x="-0.1703" y="1" relative="1" as="geometry">
            <mxPoint as="offset" />
          </mxGeometry>
        </mxCell>
        <mxCell id="rhVo1ASn1AgVRIdYZEBx-53" value="&amp;lt;&amp;lt;Extender&amp;gt;&amp;gt;" style="endArrow=none;dashed=1;html=1;dashPattern=1 3;strokeWidth=2;rounded=0;entryX=0;entryY=1;entryDx=0;entryDy=0;exitX=1;exitY=0;exitDx=0;exitDy=0;" parent="1" source="rhVo1ASn1AgVRIdYZEBx-20" target="rhVo1ASn1AgVRIdYZEBx-47" edge="1">
          <mxGeometry width="50" height="50" relative="1" as="geometry">
            <mxPoint x="1123.46" y="-290" as="sourcePoint" />
            <mxPoint x="1253.46" y="-410" as="targetPoint" />
          </mxGeometry>
        </mxCell>
        <mxCell id="rhVo1ASn1AgVRIdYZEBx-54" value="&amp;lt;&amp;lt;Extender&amp;gt;&amp;gt;" style="endArrow=none;dashed=1;html=1;dashPattern=1 3;strokeWidth=2;rounded=0;" parent="1" source="rhVo1ASn1AgVRIdYZEBx-21" target="rhVo1ASn1AgVRIdYZEBx-47" edge="1">
          <mxGeometry width="50" height="50" relative="1" as="geometry">
            <mxPoint x="1378.46" y="-320" as="sourcePoint" />
            <mxPoint x="1428.46" y="-370" as="targetPoint" />
          </mxGeometry>
        </mxCell>
        <mxCell id="aN8kHr5MgLDqO3GNzkuO-2" value="&amp;lt;&amp;lt;Extender&amp;gt;&amp;gt;" style="endArrow=none;dashed=1;html=1;dashPattern=1 3;strokeWidth=2;rounded=0;" parent="1" source="SLZqTuVwZuzJUBH67Rhd-8" target="SLZqTuVwZuzJUBH67Rhd-10" edge="1">
          <mxGeometry width="50" height="50" relative="1" as="geometry">
            <mxPoint x="1073.46" y="300" as="sourcePoint" />
            <mxPoint x="1123.46" y="250" as="targetPoint" />
          </mxGeometry>
        </mxCell>
        <mxCell id="aN8kHr5MgLDqO3GNzkuO-3" value="Notificar al estudiante" style="ellipse;whiteSpace=wrap;html=1;" parent="1" vertex="1">
          <mxGeometry x="1060" y="313" width="80" height="80" as="geometry" />
        </mxCell>
        <mxCell id="aN8kHr5MgLDqO3GNzkuO-4" value="&amp;lt;&amp;lt;Extender&amp;gt;&amp;gt;" style="endArrow=none;dashed=1;html=1;dashPattern=1 3;strokeWidth=2;rounded=0;entryX=0.685;entryY=1.019;entryDx=0;entryDy=0;entryPerimeter=0;" parent="1" source="aN8kHr5MgLDqO3GNzkuO-3" target="rhVo1ASn1AgVRIdYZEBx-6" edge="1">
          <mxGeometry width="50" height="50" relative="1" as="geometry">
            <mxPoint x="980" y="600" as="sourcePoint" />
            <mxPoint x="1030" y="550" as="targetPoint" />
          </mxGeometry>
        </mxCell>
        <mxCell id="aN8kHr5MgLDqO3GNzkuO-5" value="&amp;lt;&amp;lt;Incluider&amp;gt;&amp;gt;" style="endArrow=none;dashed=1;html=1;dashPattern=1 3;strokeWidth=2;rounded=0;entryX=0;entryY=0.5;entryDx=0;entryDy=0;" parent="1" source="SLZqTuVwZuzJUBH67Rhd-8" target="SLZqTuVwZuzJUBH67Rhd-12" edge="1">
          <mxGeometry width="50" height="50" relative="1" as="geometry">
            <mxPoint x="1553.46" y="490" as="sourcePoint" />
            <mxPoint x="1603.46" y="440" as="targetPoint" />
          </mxGeometry>
        </mxCell>
        <mxCell id="aN8kHr5MgLDqO3GNzkuO-8" value="&amp;lt;&amp;lt;Incluir&amp;gt;&amp;gt;" style="endArrow=none;dashed=1;html=1;dashPattern=1 3;strokeWidth=2;rounded=0;" parent="1" source="SLZqTuVwZuzJUBH67Rhd-10" target="SLZqTuVwZuzJUBH67Rhd-14" edge="1">
          <mxGeometry x="0.0039" width="50" height="50" relative="1" as="geometry">
            <mxPoint x="1653.46" y="295" as="sourcePoint" />
            <mxPoint x="1703.46" y="245" as="targetPoint" />
            <mxPoint as="offset" />
          </mxGeometry>
        </mxCell>
        <mxCell id="aN8kHr5MgLDqO3GNzkuO-9" value="&amp;lt;&amp;lt;Incluir&amp;gt;&amp;gt;" style="endArrow=block;dashed=1;endFill=0;endSize=12;html=1;rounded=0;" parent="1" source="SLZqTuVwZuzJUBH67Rhd-16" target="aN8kHr5MgLDqO3GNzkuO-3" edge="1">
          <mxGeometry width="160" relative="1" as="geometry">
            <mxPoint x="1453.46" y="420" as="sourcePoint" />
            <mxPoint x="1613.46" y="480" as="targetPoint" />
          </mxGeometry>
        </mxCell>
        <mxCell id="aN8kHr5MgLDqO3GNzkuO-10" value="&amp;lt;&amp;lt;Incluir&amp;gt;&amp;gt;" style="endArrow=block;dashed=1;endFill=0;endSize=12;html=1;rounded=0;" parent="1" source="SLZqTuVwZuzJUBH67Rhd-14" target="SLZqTuVwZuzJUBH67Rhd-16" edge="1">
          <mxGeometry width="160" relative="1" as="geometry">
            <mxPoint x="1453.46" y="420" as="sourcePoint" />
            <mxPoint x="1613.46" y="420" as="targetPoint" />
          </mxGeometry>
        </mxCell>
        <mxCell id="aN8kHr5MgLDqO3GNzkuO-13" value="&amp;lt;&amp;lt;Extender&amp;gt;&amp;gt;" style="endArrow=none;dashed=1;html=1;dashPattern=1 3;strokeWidth=2;rounded=0;entryX=0.5;entryY=1;entryDx=0;entryDy=0;" parent="1" source="rhVo1ASn1AgVRIdYZEBx-22" target="rhVo1ASn1AgVRIdYZEBx-47" edge="1">
          <mxGeometry width="50" height="50" relative="1" as="geometry">
            <mxPoint x="1403.46" y="-350" as="sourcePoint" />
            <mxPoint x="1453.46" y="-400" as="targetPoint" />
          </mxGeometry>
        </mxCell>
        <mxCell id="aN8kHr5MgLDqO3GNzkuO-14" value="&amp;lt;&amp;lt;Extender&amp;gt;&amp;gt;" style="endArrow=block;dashed=1;endFill=0;endSize=12;html=1;rounded=0;" parent="1" source="SLZqTuVwZuzJUBH67Rhd-19" target="aN8kHr5MgLDqO3GNzkuO-3" edge="1">
          <mxGeometry width="160" relative="1" as="geometry">
            <mxPoint x="1013.46" y="550" as="sourcePoint" />
            <mxPoint x="1173.46" y="550" as="targetPoint" />
          </mxGeometry>
        </mxCell>
        <mxCell id="aN8kHr5MgLDqO3GNzkuO-17" value="Consultar Citas" style="ellipse;whiteSpace=wrap;html=1;" parent="1" vertex="1">
          <mxGeometry x="1037.36" y="510" width="80" height="70" as="geometry" />
        </mxCell>
        <mxCell id="aN8kHr5MgLDqO3GNzkuO-18" value="&amp;lt;&amp;lt;Extender&amp;gt;&amp;gt;" style="endArrow=none;dashed=1;html=1;dashPattern=1 3;strokeWidth=2;rounded=0;" parent="1" source="aN8kHr5MgLDqO3GNzkuO-17" target="rhVo1ASn1AgVRIdYZEBx-6" edge="1">
          <mxGeometry width="50" height="50" relative="1" as="geometry">
            <mxPoint x="880" y="370" as="sourcePoint" />
            <mxPoint x="930" y="320" as="targetPoint" />
          </mxGeometry>
        </mxCell>
        <mxCell id="aN8kHr5MgLDqO3GNzkuO-19" value="&amp;lt;&amp;lt;Incluir" style="endArrow=block;dashed=1;endFill=0;endSize=12;html=1;rounded=0;" parent="1" source="SLZqTuVwZuzJUBH67Rhd-51" target="aN8kHr5MgLDqO3GNzkuO-17" edge="1">
          <mxGeometry width="160" relative="1" as="geometry">
            <mxPoint x="867.36" y="790" as="sourcePoint" />
            <mxPoint x="1027.36" y="790" as="targetPoint" />
          </mxGeometry>
        </mxCell>
        <mxCell id="aN8kHr5MgLDqO3GNzkuO-20" value="&amp;lt;&amp;lt;Extender&amp;gt;&amp;gt;" style="endArrow=block;dashed=1;endFill=0;endSize=12;html=1;rounded=0;" parent="1" source="aN8kHr5MgLDqO3GNzkuO-17" target="SLZqTuVwZuzJUBH67Rhd-55" edge="1">
          <mxGeometry width="160" relative="1" as="geometry">
            <mxPoint x="867.36" y="760" as="sourcePoint" />
            <mxPoint x="1027.36" y="760" as="targetPoint" />
          </mxGeometry>
        </mxCell>
        <mxCell id="aN8kHr5MgLDqO3GNzkuO-21" value="&amp;lt;&amp;lt;Incluir&amp;gt;&amp;gt;" style="endArrow=block;dashed=1;endFill=0;endSize=12;html=1;rounded=0;" parent="1" source="SLZqTuVwZuzJUBH67Rhd-55" target="SLZqTuVwZuzJUBH67Rhd-62" edge="1">
          <mxGeometry x="-0.0039" width="160" relative="1" as="geometry">
            <mxPoint x="1213.252794712015" y="684.6827177521991" as="sourcePoint" />
            <mxPoint x="1331.3357624010353" y="670.9479380686707" as="targetPoint" />
            <mxPoint as="offset" />
          </mxGeometry>
        </mxCell>
        <mxCell id="aN8kHr5MgLDqO3GNzkuO-23" value="Registrar Cancelación" style="ellipse;whiteSpace=wrap;html=1;rotation=0;" parent="1" vertex="1">
          <mxGeometry x="849.9999999999999" y="610" width="80" height="60" as="geometry" />
        </mxCell>
        <mxCell id="aN8kHr5MgLDqO3GNzkuO-24" value="&amp;lt;&amp;lt;Incluir&amp;gt;&amp;gt;" style="endArrow=none;dashed=1;html=1;dashPattern=1 3;strokeWidth=2;rounded=0;" parent="1" source="aN8kHr5MgLDqO3GNzkuO-23" target="SLZqTuVwZuzJUBH67Rhd-55" edge="1">
          <mxGeometry width="50" height="50" relative="1" as="geometry">
            <mxPoint x="1287.36" y="650" as="sourcePoint" />
            <mxPoint x="1337.36" y="600" as="targetPoint" />
          </mxGeometry>
        </mxCell>
        <mxCell id="aN8kHr5MgLDqO3GNzkuO-27" value="&amp;lt;&amp;lt;Incluir&amp;gt;&amp;gt;" style="endArrow=block;dashed=1;endFill=0;endSize=12;html=1;rounded=0;" parent="1" source="aN8kHr5MgLDqO3GNzkuO-23" target="aN8kHr5MgLDqO3GNzkuO-17" edge="1">
          <mxGeometry width="160" relative="1" as="geometry">
            <mxPoint x="1327.36" y="560" as="sourcePoint" />
            <mxPoint x="1487.36" y="560" as="targetPoint" />
          </mxGeometry>
        </mxCell>
        <mxCell id="aN8kHr5MgLDqO3GNzkuO-29" value="Psicóloga" style="outlineConnect=0;dashed=0;verticalLabelPosition=bottom;verticalAlign=top;align=center;html=1;shape=mxgraph.aws3.user;fillColor=#D2D3D3;gradientColor=none;" parent="1" vertex="1">
          <mxGeometry x="2320" y="17" width="45" height="63" as="geometry" />
        </mxCell>
        <mxCell id="aN8kHr5MgLDqO3GNzkuO-37" value="Inicio sesión" style="ellipse;whiteSpace=wrap;html=1;" parent="1" vertex="1">
          <mxGeometry x="2190" y="-43" width="84.75" height="60" as="geometry" />
        </mxCell>
        <mxCell id="aN8kHr5MgLDqO3GNzkuO-38" value="" style="endArrow=classic;html=1;rounded=0;" parent="1" source="aN8kHr5MgLDqO3GNzkuO-29" target="aN8kHr5MgLDqO3GNzkuO-37" edge="1">
          <mxGeometry width="50" height="50" relative="1" as="geometry">
            <mxPoint x="2145" y="265.4966951313803" as="sourcePoint" />
            <mxPoint x="2511" y="119.13" as="targetPoint" />
          </mxGeometry>
        </mxCell>
        <mxCell id="aN8kHr5MgLDqO3GNzkuO-39" value="Presentar inicio de administrador" style="ellipse;whiteSpace=wrap;html=1;" parent="1" vertex="1">
          <mxGeometry x="1870" y="8.5" width="120" height="80" as="geometry" />
        </mxCell>
        <mxCell id="aN8kHr5MgLDqO3GNzkuO-40" value="&amp;lt;&amp;lt;Incluir&amp;gt;&amp;gt;" style="endArrow=none;dashed=1;html=1;dashPattern=1 3;strokeWidth=2;rounded=0;entryX=0.957;entryY=0.162;entryDx=0;entryDy=0;entryPerimeter=0;" parent="1" source="aN8kHr5MgLDqO3GNzkuO-37" target="aN8kHr5MgLDqO3GNzkuO-39" edge="1">
          <mxGeometry width="50" height="50" relative="1" as="geometry">
            <mxPoint x="2746" y="249.13" as="sourcePoint" />
            <mxPoint x="2796" y="199.13" as="targetPoint" />
          </mxGeometry>
        </mxCell>
        <mxCell id="aN8kHr5MgLDqO3GNzkuO-43" value="&amp;lt;&amp;lt;Extender&amp;gt;&amp;gt;" style="endArrow=block;dashed=1;endFill=0;endSize=12;html=1;rounded=0;entryX=1.05;entryY=0.346;entryDx=0;entryDy=0;entryPerimeter=0;" parent="1" source="aN8kHr5MgLDqO3GNzkuO-39" target="rhVo1ASn1AgVRIdYZEBx-41" edge="1">
          <mxGeometry width="160" relative="1" as="geometry">
            <mxPoint x="1500" y="-50" as="sourcePoint" />
            <mxPoint x="1660" y="-50" as="targetPoint" />
          </mxGeometry>
        </mxCell>
        <mxCell id="M0s8KerqLY5lVEu1khhb-1" value="&amp;lt;&amp;lt;Extender&amp;gt;&amp;gt;" style="endArrow=block;dashed=1;endFill=0;endSize=12;html=1;rounded=0;entryX=1.008;entryY=0.756;entryDx=0;entryDy=0;entryPerimeter=0;" parent="1" source="aN8kHr5MgLDqO3GNzkuO-39" target="rhVo1ASn1AgVRIdYZEBx-24" edge="1">
          <mxGeometry width="160" relative="1" as="geometry">
            <mxPoint x="1900.12" y="-150" as="sourcePoint" />
            <mxPoint x="1291.12" y="11" as="targetPoint" />
          </mxGeometry>
        </mxCell>
        <mxCell id="M0s8KerqLY5lVEu1khhb-2" value="Administrar publicaciones" style="ellipse;whiteSpace=wrap;html=1;" parent="1" vertex="1">
          <mxGeometry x="1780" y="-250" width="90" height="80" as="geometry" />
        </mxCell>
        <mxCell id="M0s8KerqLY5lVEu1khhb-3" value="" style="endArrow=block;dashed=1;endFill=0;endSize=12;html=1;rounded=0;entryX=0.5;entryY=1;entryDx=0;entryDy=0;" parent="1" source="aN8kHr5MgLDqO3GNzkuO-39" target="M0s8KerqLY5lVEu1khhb-2" edge="1">
          <mxGeometry width="160" relative="1" as="geometry">
            <mxPoint x="1450" y="20" as="sourcePoint" />
            <mxPoint x="1610" y="20" as="targetPoint" />
          </mxGeometry>
        </mxCell>
        <mxCell id="M0s8KerqLY5lVEu1khhb-4" value="&amp;lt;&amp;lt;Extender&amp;gt;&amp;gt;" style="edgeLabel;html=1;align=center;verticalAlign=middle;resizable=0;points=[];" parent="M0s8KerqLY5lVEu1khhb-3" vertex="1" connectable="0">
          <mxGeometry x="0.0961" y="-2" relative="1" as="geometry">
            <mxPoint as="offset" />
          </mxGeometry>
        </mxCell>
        <mxCell id="M0s8KerqLY5lVEu1khhb-5" value="Administrar calendario" style="ellipse;whiteSpace=wrap;html=1;" parent="1" vertex="1">
          <mxGeometry x="1660" y="-180" width="80" height="80" as="geometry" />
        </mxCell>
        <mxCell id="M0s8KerqLY5lVEu1khhb-7" value="" style="endArrow=block;dashed=1;endFill=0;endSize=12;html=1;rounded=0;" parent="1" source="aN8kHr5MgLDqO3GNzkuO-39" target="M0s8KerqLY5lVEu1khhb-5" edge="1">
          <mxGeometry width="160" relative="1" as="geometry">
            <mxPoint x="1959" y="31" as="sourcePoint" />
            <mxPoint x="1995" y="-70" as="targetPoint" />
          </mxGeometry>
        </mxCell>
        <mxCell id="M0s8KerqLY5lVEu1khhb-8" value="&amp;lt;&amp;lt;Extender&amp;gt;&amp;gt;" style="edgeLabel;html=1;align=center;verticalAlign=middle;resizable=0;points=[];" parent="M0s8KerqLY5lVEu1khhb-7" vertex="1" connectable="0">
          <mxGeometry x="0.0961" y="-2" relative="1" as="geometry">
            <mxPoint as="offset" />
          </mxGeometry>
        </mxCell>
        <mxCell id="M0s8KerqLY5lVEu1khhb-9" value="&amp;lt;&amp;lt;Extender&amp;gt;&amp;gt;" style="endArrow=block;dashed=1;endFill=0;endSize=12;html=1;rounded=0;" parent="1" source="aN8kHr5MgLDqO3GNzkuO-39" target="rhVo1ASn1AgVRIdYZEBx-33" edge="1">
          <mxGeometry width="160" relative="1" as="geometry">
            <mxPoint x="1885" y="74" as="sourcePoint" />
            <mxPoint x="1254" y="258" as="targetPoint" />
          </mxGeometry>
        </mxCell>
        <mxCell id="M0s8KerqLY5lVEu1khhb-10" value="" style="endArrow=none;dashed=1;html=1;dashPattern=1 3;strokeWidth=2;rounded=0;entryX=0.5;entryY=1;entryDx=0;entryDy=0;" parent="1" target="aN8kHr5MgLDqO3GNzkuO-39" edge="1">
          <mxGeometry width="50" height="50" relative="1" as="geometry">
            <mxPoint x="1940" y="550" as="sourcePoint" />
            <mxPoint x="1980" y="500" as="targetPoint" />
          </mxGeometry>
        </mxCell>
        <mxCell id="M0s8KerqLY5lVEu1khhb-11" value="" style="endArrow=none;dashed=1;html=1;dashPattern=1 3;strokeWidth=2;rounded=0;" parent="1" source="aN8kHr5MgLDqO3GNzkuO-17" edge="1">
          <mxGeometry width="50" height="50" relative="1" as="geometry">
            <mxPoint x="1360" y="360" as="sourcePoint" />
            <mxPoint x="1940" y="550" as="targetPoint" />
          </mxGeometry>
        </mxCell>
        <mxCell id="M0s8KerqLY5lVEu1khhb-12" value="&amp;lt;&amp;lt;Extender&amp;gt;&amp;gt;" style="edgeLabel;html=1;align=center;verticalAlign=middle;resizable=0;points=[];" parent="M0s8KerqLY5lVEu1khhb-11" vertex="1" connectable="0">
          <mxGeometry x="0.0178" y="2" relative="1" as="geometry">
            <mxPoint as="offset" />
          </mxGeometry>
        </mxCell>
        <mxCell id="M0s8KerqLY5lVEu1khhb-14" value="" style="endArrow=none;dashed=1;html=1;dashPattern=1 3;strokeWidth=2;rounded=0;entryX=0.722;entryY=0.94;entryDx=0;entryDy=0;entryPerimeter=0;" parent="1" target="aN8kHr5MgLDqO3GNzkuO-39" edge="1">
          <mxGeometry width="50" height="50" relative="1" as="geometry">
            <mxPoint x="1970" y="710" as="sourcePoint" />
            <mxPoint x="1190" y="310" as="targetPoint" />
          </mxGeometry>
        </mxCell>
        <mxCell id="M0s8KerqLY5lVEu1khhb-15" value="" style="endArrow=none;dashed=1;html=1;dashPattern=1 3;strokeWidth=2;rounded=0;" parent="1" edge="1">
          <mxGeometry width="50" height="50" relative="1" as="geometry">
            <mxPoint x="320" y="710" as="sourcePoint" />
            <mxPoint x="1970" y="710" as="targetPoint" />
          </mxGeometry>
        </mxCell>
        <mxCell id="M0s8KerqLY5lVEu1khhb-17" value="&amp;lt;Extender&amp;gt;&amp;gt;" style="edgeLabel;html=1;align=center;verticalAlign=middle;resizable=0;points=[];" parent="M0s8KerqLY5lVEu1khhb-15" vertex="1" connectable="0">
          <mxGeometry x="-0.0024" y="-3" relative="1" as="geometry">
            <mxPoint as="offset" />
          </mxGeometry>
        </mxCell>
        <mxCell id="M0s8KerqLY5lVEu1khhb-16" value="" style="endArrow=none;dashed=1;html=1;dashPattern=1 3;strokeWidth=2;rounded=0;entryX=0.5;entryY=1;entryDx=0;entryDy=0;" parent="1" target="rhVo1ASn1AgVRIdYZEBx-5" edge="1">
          <mxGeometry width="50" height="50" relative="1" as="geometry">
            <mxPoint x="320" y="710" as="sourcePoint" />
            <mxPoint x="1190" y="310" as="targetPoint" />
          </mxGeometry>
        </mxCell>
        <mxCell id="M0s8KerqLY5lVEu1khhb-18" value="Profesor" style="outlineConnect=0;dashed=0;verticalLabelPosition=bottom;verticalAlign=top;align=center;html=1;shape=mxgraph.aws3.user;fillColor=#D2D3D3;gradientColor=none;" parent="1" vertex="1">
          <mxGeometry x="2350" y="-163" width="45" height="63" as="geometry" />
        </mxCell>
        <mxCell id="M0s8KerqLY5lVEu1khhb-19" value="Presentar inicio de profesor" style="ellipse;whiteSpace=wrap;html=1;aspect=fixed;" parent="1" vertex="1">
          <mxGeometry x="2130" y="-190" width="80" height="80" as="geometry" />
        </mxCell>
        <mxCell id="M0s8KerqLY5lVEu1khhb-20" value="Buscar estudiante asignado" style="ellipse;whiteSpace=wrap;html=1;" parent="1" vertex="1">
          <mxGeometry x="2000" y="-290" width="80" height="80" as="geometry" />
        </mxCell>
        <mxCell id="M0s8KerqLY5lVEu1khhb-21" value="Crear bitácora del&amp;nbsp;día " style="ellipse;whiteSpace=wrap;html=1;" parent="1" vertex="1">
          <mxGeometry x="2060" y="-420" width="110" height="70" as="geometry" />
        </mxCell>
        <mxCell id="M0s8KerqLY5lVEu1khhb-22" value="" style="endArrow=none;dashed=1;html=1;dashPattern=1 3;strokeWidth=2;rounded=0;" parent="1" source="aN8kHr5MgLDqO3GNzkuO-37" target="M0s8KerqLY5lVEu1khhb-19" edge="1">
          <mxGeometry width="50" height="50" relative="1" as="geometry">
            <mxPoint x="2274.75" y="-150" as="sourcePoint" />
            <mxPoint x="2324.75" y="-200" as="targetPoint" />
          </mxGeometry>
        </mxCell>
        <mxCell id="M0s8KerqLY5lVEu1khhb-23" value="" style="endArrow=classic;html=1;rounded=0;entryX=0.782;entryY=0.089;entryDx=0;entryDy=0;entryPerimeter=0;" parent="1" source="M0s8KerqLY5lVEu1khhb-18" target="aN8kHr5MgLDqO3GNzkuO-37" edge="1">
          <mxGeometry width="50" height="50" relative="1" as="geometry">
            <mxPoint x="1700" y="-10" as="sourcePoint" />
            <mxPoint x="1750" y="-60" as="targetPoint" />
          </mxGeometry>
        </mxCell>
        <mxCell id="M0s8KerqLY5lVEu1khhb-24" value="" style="endArrow=none;dashed=1;html=1;dashPattern=1 3;strokeWidth=2;rounded=0;" parent="1" source="M0s8KerqLY5lVEu1khhb-19" target="M0s8KerqLY5lVEu1khhb-20" edge="1">
          <mxGeometry width="50" height="50" relative="1" as="geometry">
            <mxPoint x="1700" y="-10" as="sourcePoint" />
            <mxPoint x="1750" y="-60" as="targetPoint" />
          </mxGeometry>
        </mxCell>
        <mxCell id="M0s8KerqLY5lVEu1khhb-25" value="" style="endArrow=none;dashed=1;html=1;dashPattern=1 3;strokeWidth=2;rounded=0;" parent="1" source="M0s8KerqLY5lVEu1khhb-20" target="M0s8KerqLY5lVEu1khhb-21" edge="1">
          <mxGeometry width="50" height="50" relative="1" as="geometry">
            <mxPoint x="1700" y="-10" as="sourcePoint" />
            <mxPoint x="1750" y="-60" as="targetPoint" />
          </mxGeometry>
        </mxCell>
      </root>
    </mxGraphModel>
  </diagram>
</mxfile>
